<svg width="50px" height="50px" viewBox="0 0 20 20" fill="none" xmlns="http://www.w3.org/2000/svg">
<path fill-rule="evenodd" clip-rule="evenodd" d="M5.83398 17.5002C5.83398 16.5797 6.58018 15.8335 7.50065 15.8335C8.42112 15.8335 9.16732 16.5797 9.16732 17.5002C9.16732 18.4206 8.42112 19.1668 7.50065 19.1668C6.58018 19.1668 5.83398 18.4206 5.83398 17.5002Z" fill="#454545"/>
<path fill-rule="evenodd" clip-rule="evenodd" d="M15 17.5002C15 16.5797 15.7462 15.8335 16.6667 15.8335C17.5871 15.8335 18.3333 16.5797 18.3333 17.5002C18.3333 18.4206 17.5871 19.1668 16.6667 19.1668C15.7462 19.1668 15 18.4206 15 17.5002Z" fill="#454545"/>
<path fill-rule="evenodd" clip-rule="evenodd" d="M0 0.833333C0 0.373096 0.373096 0 0.833333 0H4.16666C4.56385 0 4.90584 0.280321 4.98379 0.669785L5.68369 4.16666H19.1667C19.415 4.16666 19.6504 4.27744 19.8087 4.46879C19.967 4.66015 20.0318 4.91214 19.9852 5.1561L18.6507 12.154C18.5364 12.7295 18.2233 13.2465 17.7663 13.6144C17.3115 13.9805 16.743 14.1758 16.1595 14.1667H8.07386C7.49031 14.1758 6.92183 13.9805 6.46706 13.6144C6.0102 13.2466 5.69719 12.7299 5.58277 12.1547C5.58272 12.1545 5.58282 12.1549 5.58277 12.1547L4.19066 5.19933C4.18501 5.17632 4.18032 5.15294 4.17662 5.12923L3.48359 1.66667H0.833333C0.373096 1.66667 0 1.29357 0 0.833333ZM6.01727 5.83333L7.21736 11.8293C7.25546 12.0211 7.35982 12.1935 7.51217 12.3161C7.66452 12.4387 7.85515 12.5039 8.05069 12.5001L8.06666 12.5H16.1667L16.1826 12.5001C16.3782 12.5039 16.5688 12.4387 16.7211 12.3161C16.8728 12.194 16.9769 12.0227 17.0154 11.832L18.1594 5.83333H6.01727Z" fill="#454545"/>
</svg>
